<?xml version="1.0" encoding="UTF-8"?>
<svg id="Layer_1" xmlns="http://www.w3.org/2000/svg" version="1.1" viewBox="0 0 250 80">
  <!-- Generator: Adobe Illustrator 30.0.0, SVG Export Plug-In . SVG Version: 2.1.1 Build 72)  -->
  <defs>
    <style>
      .st0 {
        fill: #ef5126;
      }

      .st1 {
        fill: #343333;
      }
    </style>
  </defs>
  <path class="st1" d="M69.28,19.54c-1.16-3.12-2.87-5.97-5.14-8.55-2.27-2.58-5.12-4.64-8.55-6.18-3.43-1.54-7.39-2.31-11.89-2.31s-8.58.77-11.99,2.31c-3.4,1.54-6.26,3.6-8.55,6.18-2.3,2.58-4.01,5.43-5.14,8.55-1.14,3.12-1.7,6.27-1.7,9.44v1.56c0,2.89.54,5.88,1.63,8.98,1.09,3.1,2.75,5.98,5,8.66,2.25,2.67,5.1,4.84,8.55,6.49,3.45,1.66,7.52,2.48,12.2,2.48s8.67-.83,12.1-2.48c3.43-1.66,6.27-3.82,8.51-6.49,2.25-2.67,3.92-5.56,5.04-8.66,1.11-3.1,1.67-6.09,1.67-8.98v-1.56c0-3.17-.58-6.31-1.74-9.44M58.7,38.77c-1.4,2.74-3.37,4.93-5.92,6.57-2.56,1.63-5.58,2.45-9.09,2.45s-6.61-.81-9.19-2.45c-2.58-1.63-4.56-3.82-5.92-6.57-1.38-2.74-2.06-5.73-2.06-8.94,0-3.41.7-6.47,2.09-9.19,1.4-2.72,3.37-4.86,5.93-6.42,2.55-1.56,5.61-2.34,9.15-2.34s6.53.78,9.09,2.34c2.55,1.56,4.53,3.7,5.92,6.42,1.4,2.72,2.09,5.78,2.09,9.19,0,3.22-.7,6.2-2.09,8.94"/>
  <path class="st1" d="M96.7,56.3c-3.55,0-6.48-.46-8.8-1.38-2.32-.92-4.03-2.47-5.14-4.65-1.11-2.17-1.67-5.16-1.67-8.94v-16.82h-6.1v-7.24h6.1l.07-14.24h9.23l-.07,14.24h11.92v7.24h-11.92v17.46c0,1.89.51,3.35,1.53,4.36,1.02,1.02,2.47,1.53,4.36,1.53h6.03v8.44h-5.54Z"/>
  <path class="st1" d="M127.57,57.15c-3.31,0-6.21-.57-8.69-1.7-2.48-1.14-4.54-2.66-6.17-4.58-1.63-1.92-2.86-4.06-3.69-6.42-.83-2.37-1.24-4.78-1.24-7.24v-1.35c0-2.56.41-5.01,1.24-7.38s2.06-4.5,3.69-6.39c1.63-1.9,3.65-3.4,6.07-4.51,2.41-1.11,5.2-1.67,8.37-1.67,4.16,0,7.64.91,10.43,2.73,2.79,1.82,4.91,4.21,6.35,7.17,1.44,2.96,2.17,6.14,2.17,9.54v3.55h-28.95c.33,3.03,1.34,5.47,3.02,7.31,1.68,1.85,4.15,2.77,7.42,2.77,2.36,0,4.32-.49,5.85-1.46,1.54-.97,2.52-2.17,2.94-3.58h9.09c-.85,3.97-2.86,7.17-6.03,9.58-3.17,2.41-7.12,3.62-11.85,3.62M127.14,24.08c-2.79,0-5.02.78-6.67,2.34-1.66,1.56-2.72,3.71-3.19,6.46h19.37c-.38-2.74-1.36-4.9-2.94-6.46-1.59-1.56-3.78-2.34-6.57-2.34"/>
  <rect class="st1" x="154.32" y="3.03" width="9.86" height="52.77"/>
  <polygon class="st1" points="164.16 36.01 179.09 16.5 190.48 16.5 174.49 36.08 190.29 55.66 179.07 55.66 164.16 36.01"/>
  <polygon class="st0" points="217.94 36.15 203.01 55.66 191.62 55.66 207.61 36.08 191.81 16.5 203.03 16.5 217.94 36.15"/>
  <polygon class="st0" points="233.7 36.15 218.77 55.66 207.38 55.66 223.37 36.08 207.57 16.5 218.79 16.5 233.7 36.15"/>
  <path class="st1" d="M47.14,63.68h8.12v1.56h-8.12v-1.56ZM50.31,64.94h1.76v9.46h-1.76v-9.46Z"/>
  <path class="st1" d="M59.37,74.66c-.69,0-1.28-.12-1.79-.35-.51-.24-.93-.55-1.25-.93-.33-.39-.57-.82-.73-1.31-.16-.49-.24-.98-.24-1.49v-.28c0-.52.08-1.02.24-1.51.16-.49.41-.92.73-1.31.32-.38.73-.69,1.22-.93.49-.23,1.07-.34,1.72-.34.85,0,1.56.19,2.13.56.56.37.99.85,1.28,1.45.28.59.42,1.23.42,1.91v.69h-7.02v-1.16h5.86l-.47.59c0-.53-.08-.98-.25-1.37-.17-.39-.41-.69-.73-.9s-.73-.32-1.22-.32-.93.12-1.27.35c-.35.23-.6.56-.77.97-.17.41-.25.9-.25,1.45s.08,1,.25,1.42c.17.41.43.74.78.98.35.24.8.36,1.35.36s1-.12,1.35-.36c.35-.24.57-.52.64-.85h1.6c-.11.54-.33,1.01-.65,1.41-.33.4-.75.71-1.24.93-.5.22-1.07.32-1.7.32"/>
  <path class="st1" d="M68.4,74.66c-.68,0-1.26-.12-1.77-.34-.5-.23-.92-.55-1.25-.94-.33-.4-.57-.84-.73-1.32-.16-.49-.24-.98-.24-1.48v-.26c0-.52.08-1.02.25-1.51.16-.48.41-.92.75-1.32.33-.39.75-.7,1.24-.93.49-.23,1.07-.34,1.74-.34s1.28.13,1.81.38c.54.25.96.62,1.28,1.08.32.46.51,1.01.54,1.62h-1.66c-.06-.44-.25-.81-.59-1.12-.34-.3-.8-.45-1.39-.45-.51,0-.93.12-1.26.35-.34.23-.59.56-.75.96-.17.4-.25.87-.25,1.4s.08.97.24,1.38c.16.41.41.73.75.97.34.23.77.35,1.28.35.4,0,.75-.07,1.04-.21s.52-.33.7-.57c.18-.24.28-.52.31-.83h1.67c-.03.64-.21,1.19-.54,1.65-.33.46-.77.83-1.32,1.09-.55.26-1.16.39-1.85.39"/>
  <path class="st1" d="M73.89,74.4v-10.72h1.72v6.33h-.35c0-.78.1-1.46.3-2.02.2-.56.51-.99.93-1.3.41-.3.94-.45,1.58-.45h.07c.93,0,1.63.31,2.11.94.47.63.71,1.53.71,2.7v4.51h-1.72v-4.76c0-.57-.17-1.01-.49-1.34-.33-.33-.75-.49-1.27-.49-.56,0-1.01.19-1.35.56-.35.37-.51.86-.51,1.47v4.56h-1.72Z"/>
  <path class="st1" d="M86.78,63.68h1.76v10.72h-1.76v-10.72ZM88.25,63.68h4.67v1.53h-4.67v-1.53ZM88.25,68.25h4.45v1.53h-4.45v-1.53Z"/>
  <path class="st1" d="M98.37,74.66c-.7,0-1.31-.12-1.84-.35-.53-.23-.97-.54-1.33-.92-.36-.38-.64-.81-.82-1.3-.19-.49-.28-.98-.28-1.51v-.29c0-.52.09-1.02.28-1.51.19-.49.47-.93.84-1.31.37-.39.81-.69,1.34-.92.53-.22,1.13-.34,1.81-.34s1.27.11,1.8.34c.52.22.97.53,1.34.92.37.39.65.83.85,1.31.19.49.28.99.28,1.51v.29c0,.52-.09,1.02-.28,1.51-.19.49-.46.92-.82,1.3-.36.38-.81.69-1.33.92-.53.23-1.14.35-1.84.35M98.37,73.16c.54,0,1-.12,1.38-.36.38-.24.67-.57.88-.98s.3-.87.3-1.38-.1-.98-.31-1.4c-.21-.41-.5-.74-.88-.97-.38-.24-.83-.36-1.36-.36s-.98.12-1.36.36c-.38.24-.68.56-.88.97-.2.41-.31.88-.31,1.4s.1.97.3,1.38.49.74.88.98c.38.24.84.36,1.38.36"/>
  <path class="st1" d="M104.61,74.4v-7.91h1.36v3.3h-.06c0-1.14.25-1.98.75-2.54.5-.56,1.24-.85,2.22-.85h.28v1.51h-.53c-.74,0-1.32.2-1.71.59-.39.4-.59.96-.59,1.69v4.2h-1.72Z"/>
  <path class="st1" d="M112.23,74.4l-2.2-7.91h1.67l2.1,7.91h-1.57ZM112.79,73h1.63v1.4h-1.63v-1.4ZM113.47,74.4l1.54-7.65h2.13l1.8,7.65h-1.41l-1.82-7.6h.66l-1.59,7.6h-1.32ZM117.93,73h1.63v1.4h-1.63v-1.4ZM118.59,74.4l1.85-7.91h1.57l-1.94,7.91h-1.48Z"/>
  <path class="st1" d="M125.9,74.6c-.58,0-1.08-.1-1.51-.3-.43-.2-.76-.5-1-.88-.24-.38-.35-.85-.35-1.39,0-.56.14-1.04.41-1.41.27-.37.65-.65,1.15-.84.5-.19,1.1-.28,1.79-.28h1.98v1.13h-2.03c-.52,0-.92.12-1.19.37-.28.25-.41.58-.41.98s.13.72.41.96c.27.24.67.36,1.19.36.3,0,.59-.05.87-.17.27-.11.5-.3.68-.57.18-.26.28-.64.3-1.11l.44.57c-.05.56-.18,1.03-.41,1.4-.22.38-.52.67-.91.87-.39.2-.86.3-1.42.3M128.47,74.4v-2.36h-.28v-2.67c0-.49-.12-.86-.38-1.12-.26-.25-.63-.38-1.13-.38-.28,0-.58,0-.91.01-.33,0-.66.02-.98.04-.32.01-.59.03-.84.05v-1.48c.22-.02.46-.04.71-.05.26-.01.53-.03.81-.04.28-.01.54-.01.8-.01.8,0,1.47.1,2,.31.53.21.92.53,1.18.98.26.44.39,1.04.39,1.78v4.95h-1.36Z"/>
  <path class="st1" d="M132.23,74.4v-7.91h1.36v3.3h-.06c0-1.14.25-1.98.75-2.54.5-.56,1.24-.85,2.22-.85h.28v1.51h-.53c-.74,0-1.32.2-1.71.59-.39.4-.59.96-.59,1.69v4.2h-1.72Z"/>
  <path class="st1" d="M141.52,74.66c-.57,0-1.09-.1-1.55-.31-.46-.21-.87-.49-1.22-.87-.35-.37-.62-.8-.8-1.29-.19-.49-.28-1.02-.28-1.6v-.28c0-.56.09-1.1.27-1.59.18-.49.44-.93.77-1.3.33-.37.73-.66,1.19-.87.47-.21.98-.31,1.55-.31.61,0,1.15.13,1.64.38.49.26.88.66,1.18,1.19.3.53.46,1.21.49,2.03l-.58-.81v-5.36h1.72v10.72h-1.37v-3.43h.38c-.03.85-.2,1.55-.52,2.1-.32.55-.72.95-1.22,1.21-.5.26-1.05.39-1.64.39M141.84,73.18c.44,0,.84-.1,1.2-.29.35-.2.64-.49.86-.86.22-.38.33-.82.33-1.33v-.63c0-.5-.11-.93-.34-1.28-.22-.35-.52-.62-.88-.81-.36-.19-.76-.28-1.19-.28-.48,0-.9.12-1.27.34-.37.23-.65.55-.86.96-.2.41-.31.89-.31,1.44s.1,1.04.32,1.46c.21.41.5.72.87.94.37.22.79.33,1.26.33"/>
  <path class="st1" d="M150.75,74.4l3.76-10.72h2.92l3.88,10.72h-1.82l-3.39-9.54.72.33h-1.78l.76-.33-3.29,9.54h-1.76ZM153.19,71.37l.56-1.53h4.49l.57,1.53h-5.62Z"/>
  <path class="st1" d="M161.87,63.68h2.77v1.32h-2.77v-1.32ZM162.91,63.68h1.73v10.72h-1.73v-10.72Z"/>
  <path class="st1" d="M168.44,74.4l-2.2-7.91h1.67l2.1,7.91h-1.57ZM169,73h1.63v1.4h-1.63v-1.4ZM169.68,74.4l1.54-7.65h2.13l1.8,7.65h-1.41l-1.82-7.6h.66l-1.59,7.6h-1.32ZM174.14,73h1.63v1.4h-1.63v-1.4ZM174.8,74.4l1.85-7.91h1.57l-1.94,7.91h-1.48Z"/>
  <path class="st1" d="M182.11,74.6c-.58,0-1.08-.1-1.51-.3-.43-.2-.76-.5-1-.88-.24-.38-.35-.85-.35-1.39,0-.56.14-1.04.41-1.41.27-.37.65-.65,1.15-.84.5-.19,1.1-.28,1.79-.28h1.98v1.13h-2.03c-.52,0-.92.12-1.19.37-.28.25-.41.58-.41.98s.14.72.41.96c.27.24.67.36,1.19.36.3,0,.59-.05.87-.17.27-.11.5-.3.68-.57.18-.26.28-.64.3-1.11l.44.57c-.05.56-.18,1.03-.41,1.4-.22.38-.52.67-.91.87-.39.2-.86.3-1.42.3M184.68,74.4v-2.36h-.28v-2.67c0-.49-.12-.86-.38-1.12-.26-.25-.63-.38-1.13-.38-.28,0-.58,0-.91.01-.33,0-.66.02-.98.04-.32.01-.6.03-.84.05v-1.48c.22-.02.46-.04.71-.05.26-.01.53-.03.81-.04.28-.01.54-.01.8-.01.8,0,1.47.1,2,.31.53.21.92.53,1.18.98.26.44.39,1.04.39,1.78v4.95h-1.36Z"/>
  <path class="st1" d="M190.01,74.22l-2.69-7.74h1.75l2.57,7.74h-1.63ZM187.99,77.5v-1.51h1.31c.3,0,.56-.04.78-.11.22-.07.39-.2.53-.38.14-.18.25-.42.34-.73l2.3-8.28h1.66l-2.5,8.69c-.15.55-.37,1-.65,1.34-.28.35-.63.59-1.06.75-.43.15-.94.23-1.53.23h-1.18ZM190.43,72.83h1.7v1.4h-1.7v-1.4Z"/>
  <path class="st1" d="M199.2,74.63c-1.06,0-1.9-.22-2.49-.68-.59-.45-.91-1.07-.93-1.86h1.58c.02.29.17.56.46.81.28.25.75.37,1.39.37.55,0,.98-.11,1.29-.32.31-.22.47-.49.47-.81,0-.29-.11-.52-.34-.7-.23-.17-.62-.29-1.17-.34l-.78-.07c-.81-.09-1.46-.33-1.93-.72-.47-.39-.71-.92-.71-1.59,0-.53.13-.98.4-1.33.26-.36.63-.64,1.09-.84.46-.2,1-.3,1.61-.3.94,0,1.7.21,2.27.62.58.42.88,1.03.9,1.82h-1.57c-.02-.3-.16-.56-.43-.76-.26-.21-.66-.31-1.17-.31-.49,0-.86.1-1.12.3-.26.2-.39.44-.39.75,0,.28.1.49.3.64.2.16.51.26.95.31l.77.07c.89.1,1.6.34,2.12.74.52.4.79.95.79,1.65,0,.51-.14.96-.43,1.34-.28.38-.67.68-1.18.89-.5.21-1.09.32-1.75.32"/>
</svg>